<?xml version="1.0" encoding="UTF-8"?>
<svg width="512px" height="512px" viewBox="0 0 512 512" version="1.1" xmlns="http://www.w3.org/2000/svg">
  <title>Weather Dashboard Favicon</title>
  <defs>
    <linearGradient id="sunGradient" x1="0%" y1="0%" x2="100%" y2="100%">
      <stop offset="0%" stop-color="#FDB813" />
      <stop offset="100%" stop-color="#F57C00" />
    </linearGradient>
    <linearGradient id="cloudGradient" x1="0%" y1="0%" x2="100%" y2="100%">
      <stop offset="0%" stop-color="#ECEFF1" />
      <stop offset="100%" stop-color="#B0BEC5" />
    </linearGradient>
    <linearGradient id="rainGradient" x1="0%" y1="0%" x2="100%" y2="100%">
      <stop offset="0%" stop-color="#3D8BFD" />
      <stop offset="100%" stop-color="#0D6EFD" />
    </linearGradient>
  </defs>
  <circle cx="156" cy="156" r="65" fill="url(#sunGradient)" />
  <path d="M156,70 C152,70 148,70.5 144,71.2 L144,61 C144,57.7 146.7,55 150,55 L162,55 C165.3,55 168,57.7 168,61 L168,71.2 C164,70.5 160,70 156,70 Z" fill="url(#sunGradient)" />
  <path d="M156,242 C160,242 164,241.5 168,240.8 L168,251 C168,254.3 165.3,257 162,257 L150,257 C146.7,257 144,254.3 144,251 L144,240.8 C148,241.5 152,242 156,242 Z" fill="url(#sunGradient)" />
  <path d="M70,156 C70,160 70.5,164 71.2,168 L61,168 C57.7,168 55,165.3 55,162 L55,150 C55,146.7 57.7,144 61,144 L71.2,144 C70.5,148 70,152 70,156 Z" fill="url(#sunGradient)" />
  <path d="M242,156 C242,152 241.5,148 240.8,144 L251,144 C254.3,144 257,146.7 257,150 L257,162 C257,165.3 254.3,168 251,168 L240.8,168 C241.5,164 242,160 242,156 Z" fill="url(#sunGradient)" />
  <path d="M95.4,95.4 C92.9,97.9 90.7,100.6 88.8,103.5 L82.3,97 C79.9,94.6 79.9,90.7 82.3,88.3 L90.2,80.4 C92.6,78 96.5,78 98.9,80.4 L105.4,86.9 C102.5,88.7 99.8,91 97.3,93.5 L95.4,95.4 Z" fill="url(#sunGradient)" />
  <path d="M216.6,216.6 C219.1,214.1 221.3,211.4 223.2,208.5 L229.7,215 C232.1,217.4 232.1,221.3 229.7,223.7 L221.8,231.6 C219.4,234 215.5,234 213.1,231.6 L206.6,225.1 C209.5,223.3 212.2,221 214.7,218.5 L216.6,216.6 Z" fill="url(#sunGradient)" />
  <path d="M95.4,216.6 C97.9,219.1 100.6,221.3 103.5,223.2 L97,229.7 C94.6,232.1 90.7,232.1 88.3,229.7 L80.4,221.8 C78,219.4 78,215.5 80.4,213.1 L86.9,206.6 C88.7,209.5 91,212.2 93.5,214.7 L95.4,216.6 Z" fill="url(#sunGradient)" />
  <path d="M216.6,95.4 C214.1,92.9 211.4,90.7 208.5,88.8 L215,82.3 C217.4,79.9 221.3,79.9 223.7,82.3 L231.6,90.2 C234,92.6 234,96.5 231.6,98.9 L225.1,105.4 C223.3,102.5 221,99.8 218.5,97.3 L216.6,95.4 Z" fill="url(#sunGradient)" />
  
  <!-- Cloud -->
  <path d="M375,205 C342.5,205 315.8,228.5 310.8,260 C306.5,258.9 302,258.3 297.3,258.3 C271.7,258.3 251,279 251,304.6 C251,330.2 271.7,350.9 297.3,350.9 L375,350.9 C414.2,350.9 446,319.1 446,279.9 C446,240.7 414.2,208.9 375,208.9 L375,205 Z" fill="url(#cloudGradient)" />
  
  <!-- Raindrops -->
  <path d="M280,355 L280,415 C280,422.7 273.7,429 266,429 C258.3,429 252,422.7 252,415 L252,355 L280,355 Z" fill="url(#rainGradient)" />
  <path d="M320,355 L320,395 C320,402.7 313.7,409 306,409 C298.3,409 292,402.7 292,395 L292,355 L320,355 Z" fill="url(#rainGradient)" />
  <path d="M360,355 L360,425 C360,432.7 353.7,439 346,439 C338.3,439 332,432.7 332,425 L332,355 L360,355 Z" fill="url(#rainGradient)" />
  <path d="M400,355 L400,405 C400,412.7 393.7,419 386,419 C378.3,419 372,412.7 372,405 L372,355 L400,355 Z" fill="url(#rainGradient)" />
</svg> 